<svg xmlns="http://www.w3.org/2000/svg" viewBox="0 0 64 64" role="img" aria-label="frog-blog">
  <rect width="64" height="64" fill="#fff"/>
  <g fill="none" stroke="#050505" stroke-width="6" stroke-linecap="round" stroke-linejoin="round">
    <path d="M40 30c8 0 14-3 19-9"/>
    <path d="M43 27c8-4 11-10 11-18"/>
    <path d="M52 15l7-5"/>
    <path d="M53 18l8 1"/>
    <path d="M18 38c-5 0-9-1-13-3"/>
    <path d="M11 35l-7-4"/>
    <path d="M10 38l-7 3"/>
    <path d="M22 44c-6 1-10 3-15 7"/>
    <path d="M12 49l-7 1"/>
    <path d="M13 51l-5 5"/>
  </g>
  <path fill="#050505" d="M8 34c9 1 17 2 27-3 7-3 10-8 9-15-.4-3.6 1.6-6 5.1-6.2h4.5c3 0 4.4 1.6 4.4 4.9v10.2c0 8.7-8.9 16.1-23.5 22C24.2 51 14.5 54.5 8.7 56.2c4.2-4.9 7.5-9.4 9.9-13.5 2.6-4.5-.7-7.6-10.6-8.7Z"/>
  <circle cx="49" cy="17" r="6.5" fill="#fff"/>
  <circle cx="49" cy="17" r="2.7" fill="#050505"/>
</svg>
